<svg xmlns="http://www.w3.org/2000/svg" version="1.1" xmlns:xlink="http://www.w3.org/1999/xlink" viewBox="0 0 200 200" width="200" height="200"><metadata><rdf:RDF xmlns:rdf="http://www.w3.org/1999/02/22-rdf-syntax-ns#" xmlns:dc="http://purl.org/dc/elements/1.1/"><rdf:Description><dc:creator>RealFaviconGenerator</dc:creator><dc:source>https://realfavicongenerator.net</dc:source></rdf:Description></rdf:RDF></metadata><rect width="200" height="200" fill="url('#gradient')"></rect><defs><linearGradient id="gradient" gradientTransform="rotate(45 0.5 0.5)"><stop offset="0%" stop-color="#000000"></stop><stop offset="100%" stop-color="#2f352e"></stop></linearGradient></defs><g><g fill="#ffffff" transform="matrix(3.251367084141824,0,0,3.251367084141824,6.507057767272698,123.1165952688383)" stroke="#3d525c" stroke-width="0.2"><path d="M6.69-4.82L4.50-4.82L4.50 0L1.07 0L1.07-14.22L6.75-14.22Q8.38-14.22 9.63-13.62Q10.89-13.02 11.58-11.91Q12.27-10.80 12.27-9.39L12.27-9.39Q12.27-7.31 10.78-6.07Q9.29-4.82 6.69-4.82L6.69-4.82ZM4.50-11.57L4.50-7.47L6.75-7.47Q7.74-7.47 8.27-7.97Q8.79-8.47 8.79-9.38L8.79-9.38Q8.79-10.37 8.25-10.97Q7.71-11.56 6.79-11.57L6.79-11.57L4.50-11.57ZM14.09-14.22L18.59-14.22L21.77-4.33L24.93-14.22L29.44-14.22L29.44 0L26.01 0L26.01-3.32L26.34-10.12L22.90 0L20.63 0L17.19-10.13L17.52-3.32L17.52 0L14.09 0L14.09-14.22ZM40.70 0L39.87-2.66L35.18-2.66L34.36 0L30.69 0L35.91-14.22L39.13-14.22L44.38 0L40.70 0ZM37.52-10.23L36.00-5.30L39.05-5.30L37.52-10.23ZM51.19 0L45.42 0L45.42-14.22L50.53-14.22Q53.27-14.22 54.70-13.21Q56.13-12.21 56.13-10.29L56.13-10.29Q56.13-9.19 55.63-8.41Q55.12-7.63 54.13-7.26L54.13-7.26Q55.24-6.96 55.84-6.16Q56.44-5.36 56.44-4.21L56.44-4.21Q56.44-2.12 55.11-1.07Q53.79-0.02 51.19 0L51.19 0ZM51.25-6.04L48.85-6.04L48.85-2.64L51.09-2.64Q52.02-2.64 52.52-3.06Q53.02-3.49 53.02-4.26L53.02-4.26Q53.02-6.04 51.25-6.04L51.25-6.04ZM48.85-11.57L48.85-8.29L50.63-8.29Q51.76-8.30 52.24-8.70Q52.71-9.10 52.71-9.88L52.71-9.88Q52.71-10.78 52.20-11.18Q51.68-11.57 50.53-11.57L50.53-11.57L48.85-11.57Z"></path></g></g></svg>